<svg width="32" height="26" viewBox="0 0 32 26" fill="none" xmlns="http://www.w3.org/2000/svg">
<path d="M4.8 6.6002C4.8 4.90281 5.47428 3.27494 6.67452 2.07471C7.87475 0.874479 9.50261 0.200195 11.2 0.200195C12.8974 0.200195 14.5253 0.874479 15.7255 2.07471C16.9257 3.27494 17.6 4.90281 17.6 6.6002C17.6 8.29758 16.9257 9.92545 15.7255 11.1257C14.5253 12.3259 12.8974 13.0002 11.2 13.0002C9.50261 13.0002 7.87475 12.3259 6.67452 11.1257C5.47428 9.92545 4.8 8.29758 4.8 6.6002ZM0 24.3152C0 19.3902 3.99 15.4002 8.915 15.4002H13.485C18.41 15.4002 22.4 19.3902 22.4 24.3152C22.4 25.1352 21.735 25.8002 20.915 25.8002H1.485C0.665 25.8002 0 25.1352 0 24.3152ZM31.25 9.0502L24.85 15.4502C24.38 15.9202 23.62 15.9202 23.155 15.4502L19.955 12.2502C19.485 11.7802 19.485 11.0202 19.955 10.5552C20.425 10.0902 21.185 10.0852 21.65 10.5552L24 12.9052L29.55 7.3502C30.02 6.8802 30.78 6.8802 31.245 7.3502C31.71 7.8202 31.715 8.5802 31.245 9.0452L31.25 9.0502Z" fill="#4987D8"/>
</svg>
